<mxfile host="app.diagrams.net" modified="2023-06-09T09:01:47.080Z" agent="Mozilla/5.0 (Windows NT 10.0; WOW64) AppleWebKit/537.36 (KHTML, like Gecko) Chrome/98.0.4758.102 Safari/537.36" etag="UFF9Rt1QPhoDzfwupazY" version="21.3.8" type="github">
  <diagram name="第 1 页" id="mwjbd0DWXr3cBy_Mdmfu">
    <mxGraphModel dx="1376" dy="735" grid="1" gridSize="10" guides="1" tooltips="1" connect="1" arrows="1" fold="1" page="1" pageScale="1" pageWidth="827" pageHeight="1169" math="0" shadow="0">
      <root>
        <mxCell id="0" />
        <mxCell id="1" parent="0" />
        <mxCell id="80c4YwfRIevlo3T5H2QM-1" value="&lt;font style=&quot;font-size: 18px;&quot;&gt;&lt;b&gt;TV&lt;/b&gt;&lt;/font&gt;" style="shape=ext;double=1;rounded=0;whiteSpace=wrap;html=1;labelBackgroundColor=none;fillColor=#B1DDF0;strokeColor=#BAC8D3;fontColor=#182E3E;" vertex="1" parent="1">
          <mxGeometry x="80" y="320" width="120" height="80" as="geometry" />
        </mxCell>
      </root>
    </mxGraphModel>
  </diagram>
</mxfile>
